<?xml version="1.0" standalone="no"?>
<!DOCTYPE svg PUBLIC "-//W3C//DTD SVG 20010904//EN"
 "http://www.w3.org/TR/2001/REC-SVG-20010904/DTD/svg10.dtd">
<svg version="1.0" xmlns="http://www.w3.org/2000/svg"
 width="1080.000000pt" height="1080.000000pt" viewBox="0 0 1080.000000 1080.000000"
 preserveAspectRatio="xMidYMid meet">

<g transform="translate(0.000000,1080.000000) scale(0.100000,-0.100000)"
fill="#FFFFFF" stroke="none">
<path d="M5235 7554 c-298 -32 -536 -96 -770 -209 -816 -394 -1304 -1262
-1214 -2160 9 -87 8 -109 -2 -116 -11 -6 -9 -14 7 -36 11 -15 26 -57 34 -93 7
-36 34 -130 60 -210 339 -1041 1410 -1665 2480 -1446 1034 213 1767 1144 1727
2196 -30 775 -461 1463 -1147 1828 -210 112 -435 186 -690 227 -93 15 -405 27
-485 19z m450 -150 c807 -110 1481 -718 1679 -1513 40 -159 41 -175 14 -211
-33 -45 -121 -100 -208 -131 -106 -38 -235 -62 -292 -56 -64 8 -206 57 -329
113 -97 44 -105 46 -173 42 -85 -6 -154 -36 -299 -132 -83 -54 -112 -68 -186
-85 -193 -45 -252 -39 -441 49 -143 67 -220 85 -299 70 -61 -11 -57 -9 -141
-70 -202 -147 -402 -187 -554 -111 -33 17 -115 69 -180 116 -65 47 -137 90
-160 96 -61 17 -184 6 -237 -21 -24 -13 -97 -56 -162 -98 -142 -89 -198 -112
-276 -112 -52 0 -59 2 -65 23 -3 12 -3 38 0 58 6 37 6 37 63 41 37 3 78 15
121 37 36 18 92 47 125 63 33 17 76 43 95 58 19 15 66 44 103 64 129 68 192
52 452 -119 159 -104 200 -118 335 -113 l105 4 116 62 c64 34 133 75 154 92
84 67 142 63 320 -22 77 -36 158 -72 179 -79 92 -28 266 -6 386 48 30 14 103
59 162 100 155 107 182 117 303 118 110 0 155 -15 261 -87 90 -61 293 -115
360 -96 16 5 53 16 83 24 83 23 175 95 212 167 28 54 18 67 -14 19 -47 -72
-250 -150 -360 -138 -73 7 -236 68 -304 113 -88 58 -153 76 -263 70 -112 -5
-134 -14 -329 -130 -170 -101 -195 -112 -313 -132 -126 -21 -188 -10 -324 55
-225 108 -255 107 -424 -8 -142 -97 -187 -115 -298 -120 -140 -7 -197 12 -346
113 -177 120 -254 157 -343 163 -64 4 -78 1 -135 -25 -35 -17 -94 -58 -133
-93 -119 -106 -216 -162 -305 -176 l-40 -7 0 43 c0 64 28 243 55 350 67 267
188 519 358 745 78 103 269 294 372 372 443 333 972 472 1520 397z m1734
-1881 c5 -76 6 -143 4 -149 -6 -16 -132 -52 -224 -64 -58 -8 -116 -7 -240 4
-211 19 -301 44 -429 118 -25 14 -70 34 -101 43 -52 17 -60 17 -103 2 -26 -9
-101 -53 -167 -97 -217 -147 -310 -178 -472 -160 -108 13 -125 19 -257 105
-127 82 -174 105 -220 105 -53 0 -134 -38 -258 -122 -141 -96 -189 -113 -307
-112 -111 0 -135 11 -317 130 -171 112 -218 134 -288 134 -70 0 -184 -46 -295
-117 -148 -96 -227 -122 -319 -109 -45 7 -46 8 -46 43 0 30 3 34 18 28 9 -4
40 -10 67 -12 74 -7 142 23 275 123 168 125 178 129 285 128 109 -1 117 -5
266 -124 63 -50 141 -104 173 -120 53 -27 69 -30 151 -30 145 0 245 39 407
161 126 94 200 103 319 39 261 -143 374 -167 559 -121 109 27 150 48 228 115
35 29 92 68 127 86 60 31 69 32 142 28 62 -4 94 -13 157 -42 99 -46 265 -104
334 -117 64 -12 172 7 300 53 94 34 182 105 203 163 7 19 15 33 17 31 2 -2 7
-66 11 -143z m-914 -123 c116 -58 165 -77 289 -112 103 -28 126 -31 313 -35
186 -4 238 0 299 24 11 4 14 -5 14 -38 l0 -44 -113 -32 c-155 -45 -153 -44
-258 -27 -135 21 -228 49 -359 107 -222 97 -337 77 -628 -111 -131 -85 -255
-116 -372 -93 -63 13 -263 103 -364 164 -32 20 -77 39 -100 42 -55 9 -141 -24
-207 -78 -159 -131 -236 -163 -373 -154 -121 8 -197 37 -307 119 -52 39 -107
83 -124 98 -43 40 -90 61 -149 67 -87 9 -150 -16 -314 -127 -149 -99 -237
-140 -306 -140 -39 0 -43 6 -52 93 l-6 62 81 -3 c98 -4 168 19 301 99 123 74
168 95 235 107 96 19 123 9 289 -101 83 -55 180 -114 216 -131 60 -29 73 -31
170 -30 122 0 128 2 248 101 161 131 257 177 329 155 21 -6 97 -50 168 -97
163 -107 197 -124 282 -137 91 -14 170 -5 238 26 59 27 262 163 286 192 21 25
129 74 164 74 17 0 66 -18 110 -40z m-2367 -175 c20 -9 57 -35 82 -59 194
-184 286 -229 477 -229 88 0 98 3 168 37 54 27 93 56 142 107 123 128 224 155
318 85 27 -20 73 -47 274 -159 107 -60 239 -73 351 -34 36 12 106 50 155 83
172 117 202 134 265 150 45 11 89 15 145 11 68 -4 90 -10 148 -42 93 -50 207
-90 329 -115 118 -25 199 -21 311 12 55 16 73 27 89 52 l19 31 -6 -45 c-38
-258 -141 -547 -272 -760 -167 -269 -404 -510 -662 -670 -361 -224 -809 -335
-1213 -301 -743 62 -1367 487 -1684 1146 -51 106 -123 303 -142 393 -9 40 -9
42 14 42 57 0 186 52 271 110 49 33 99 70 113 83 42 39 94 75 115 80 46 11
157 6 193 -8z"/>
</g>
</svg>
